o Armour0_Torso
v -0.26707900 -7.0246476e-2 0.13942107
v 0.25361100 -7.0950124e-2 0.15012990
v -0.10792400 0.57716515 0.16295498
v 0.10367800 0.57716515 0.16295498
v -0.10442100 0.59843829 5.4511260e-3
v -0.25022500 1.6387390e-2 -0.26490844
v 9.8991000e-2 0.60412308 1.2596444e-2
v 0.23491200 2.8271755e-2 -0.26223338
v 0.36104000 -0.18987425 -0.36756198
v 0.25810500 -7.7953197e-2 -0.12986878
v 0.39783200 -0.35053167 -6.2756467e-2
v 0.27920100 -0.18014293 0.11592848
v 0.24252300 -0.35832655 0.23865041
v -1.4030000e-2 -0.11280141 0.13230140
v -0.33564400 -0.33655721 0.23668691
v -0.27944300 -0.11547359 2.3520585e-2
v -0.40454700 -0.29082584 -0.25079203
v -0.27067500 -6.8457220e-2 -0.23067639
v -0.38182200 -0.20454494 -0.38032143
v 0.36133300 -0.13935318 -0.45686075
v 0.12841400 -0.11668505 -0.35253228
v -3.4829000e-2 -0.28007209 -0.52708882
v -0.18214500 -0.14340406 -0.36586633
v -0.37723900 -0.14291522 -0.45863919
v -6.2710000e-3 -7.3489954e-2 0.13404750
v -2.1230000e-3 0.57716515 0.16295498
v 0.10133400 0.59064424 8.7775229e-2
v 0.24426200 -2.1339059e-2 -5.6052222e-2
v -0.10617300 0.58780111 8.4203414e-2
v -0.25865100 -2.6929058e-2 -6.2743562e-2
v 1.8100000e-4 0.60816004 9.2101488e-3
v 1.8100000e-4 9.7842108e-3 -0.28941627
vt 9.1364000e-2 0.36156000
vt 0.10715300 0.34870300
vt 0.11133700 0.37859500
vt 0.11301700 0.36990500
vt 0.12935000 0.37103300
vt 0.13556500 0.53026200
vt 0.13579800 0.36110800
vt 0.14053500 0.33720000
vt 0.14349200 0.50376100
vt 0.14673800 0.42965900
vt 0.14736300 0.36347000
vt 0.15386500 0.42731000
vt 0.15398400 0.51992400
vt 0.16099200 0.42496000
vt 0.16211200 0.44062300
vt 0.16789300 0.54473400
vt 0.16985600 0.35975500
vt 0.17058900 0.36347000
vt 0.17098000 0.42496000
vt 0.17119800 0.44062300
vt 0.17119800 0.50376100
vt 0.18028400 0.44062300
vt 0.18096900 0.42496000
vt 0.18330500 0.51710500
vt 0.18770500 0.42754500
vt 0.19381500 0.36347000
vt 0.19444000 0.43012900
vt 0.19444100 0.33629800
vt 0.19890400 0.50376100
vt 0.19895300 0.35366500
vt 0.20529500 0.52988600
vt 0.21205900 0.37176300
vt 0.21880100 0.33968100
vt 0.21992900 0.36764900
vt 0.23030400 0.38005500
vt 0.24947600 0.36268700
vn -0.68281555 0.13891742 0.71726206
vn 0.67717067 0.13350362 0.72361362
vn -0.67248560 0.45064166 -0.58709899
vn 0.68164557 0.44185522 -0.58320090
vn 0.92817360 -4.0614010e-2 0.36992468
vn 0.87042312 0.47657975 0.12343145
vn 0.16912222 0.53520181 0.82762111
vn -0.62476003 0.40473131 0.66773309
vn -0.88932939 0.45424059 5.2523538e-2
vn -0.87599144 0.34650883 0.33551546
vn -0.21658303 0.44888611 -0.86694466
vn -0.10356958 0.35808013 -0.92792886
vn -2.6540050e-3 0.63425368 -0.77312045
vn 0.11777322 0.32765734 -0.93742740
vn 0.22486741 0.41906444 -0.87967019
vn 0.0000000e+0 -4.4384486e-2 0.99901452
vn 0.97426417 0.22518713 1.0004106e-2
vn -0.97112265 0.23834548 1.0593482e-2
vn 1.9759803e-2 0.44645459 -0.89458809
vn -0.97112111 0.23835208 1.0586363e-2
vn 1.9974729e-2 -4.8298830e-2 0.99863318
vn -0.62476003 0.40473131 0.66773309
vn -0.62476003 0.40473131 0.66773309
vn -0.67888931 0.14069764 0.72063408
vn -0.67888931 0.14069764 0.72063408
vn 0.97426351 0.22518981 1.0008225e-2
vn -5.5695190e-2 -0.31030048 0.94900562
vn 0.66488489 0.13929094 0.73384338
vn 0.66488489 0.13929094 0.73384338
vn -0.97112338 0.23834257 1.0592680e-2
vn -0.87599144 0.34650883 0.33551546
vn -0.68517351 0.44093018 -0.57975671
vn -0.68517351 0.44093018 -0.57975671
vn -3.9887097e-2 0.78445695 -0.61889927
vn 1.4873937e-2 0.76238590 -0.64695170
vn 0.68539493 0.43903262 -0.58093386
vn 0.68539493 0.43903262 -0.58093386
vn 0.87837970 0.47223248 7.3794266e-2
vn 0.97426528 0.22518245 1.0001063e-2
vn 0.65015128 -0.53911627 0.53540355
vn 0.87042312 0.47657975 0.12343145
vn 0.97426440 0.22518613 1.0004644e-2
vn -6.1309103e-3 -0.18341266 0.98301689
vn 0.87042312 0.47657975 0.12343145
vn 0.16912222 0.53520181 0.82762111
vn 0.97426440 0.22518613 1.0004644e-2
vn -6.1309103e-3 -0.18341266 0.98301689
vn 1.9974729e-2 -4.8298830e-2 0.99863318
vn 4.3554234e-2 -5.2909064e-2 0.99764907
vn 8.0926728e-2 0.32349397 0.94276323
vn 0.16912222 0.53520181 0.82762111
vn -0.97112111 0.23835208 1.0586363e-2
vn -0.96793922 0.25112942 5.2609078e-3
vn -0.90883124 0.38034849 0.17134998
vn -0.97112338 0.23834257 1.0592680e-2
vn -0.87599144 0.34650883 0.33551546
vn -0.85207645 0.51906601 -6.7351276e-2
vn 1.9974729e-2 -4.8298830e-2 0.99863318
vn -6.1309103e-3 -0.18341266 0.98301689
vn -1.0337523e-2 -4.1009212e-2 0.99910529
vn -1.0337523e-2 -4.1009212e-2 0.99910529
vn -6.1309103e-3 -0.18341266 0.98301689
vn -1.0337523e-2 -4.1009212e-2 0.99910529
vn -1.0337523e-2 -4.1009212e-2 0.99910529
vn 0.97426440 0.22518613 1.0004644e-2
vn 0.92817360 -4.0614010e-2 0.36992468
vn 0.97426430 0.22518655 1.0004445e-2
vn 0.97426430 0.22518655 1.0004445e-2
vn 0.97426440 0.22518613 1.0004644e-2
vn 0.97426430 0.22518655 1.0004445e-2
vn 0.92817360 -4.0614010e-2 0.36992468
vn 0.97426430 0.22518655 1.0004445e-2
vn -0.97112111 0.23835208 1.0586363e-2
vn -0.97112338 0.23834257 1.0592680e-2
vn -0.88932939 0.45424059 5.2523538e-2
vn -0.88932939 0.45424059 5.2523538e-2
vn -0.97112244 0.23834645 1.0591511e-2
vn -0.97112244 0.23834645 1.0591511e-2
vn -0.97112244 0.23834645 1.0591511e-2
vn -0.97112244 0.23834645 1.0591511e-2
vn -1.1778912e-3 0.51670772 -0.85616105
vn -1.1778912e-3 0.51670772 -0.85616105
vn -1.1778912e-3 0.51670772 -0.85616105
vn 7.9778311e-3 0.44348183 -0.89624786
vn 7.9778311e-3 0.44348183 -0.89624786
vn 7.9778311e-3 0.44348183 -0.89624786
vn -1.1778912e-3 0.51670772 -0.85616105
vn -1.1778912e-3 0.51670772 -0.85616105
vn 7.9778311e-3 0.44348183 -0.89624786
vn -1.1778912e-3 0.51670772 -0.85616105
f 1/11/20 30/5/73 16/7/52
f 10/34/39 28/32/65 12/30/42
f 12/30/46 28/32/69 2/26/26
f 14/17/48 25/18/58 1/11/21
f 18/4/55 30/5/74 6/3/30
f 2/26/27 25/18/62 12/30/47
f 12/30/43 25/18/59 14/17/49
f 1/11/22 15/8/8 14/17/50
f 1/11/23 16/7/53 15/8/8
f 6/3/31 19/1/10 18/4/56
f 6/9/34 32/21/90 24/6/15
f 8/35/38 28/32/71 9/36/5
f 9/36/5 28/32/66 10/34/40
f 10/34/41 12/30/44 11/33/6
f 12/30/45 14/17/51 13/28/7
f 16/7/54 30/5/75 17/2/9
f 17/2/9 30/5/76 18/4/57
f 20/31/11 32/21/88 8/29/35
f 21/24/12 32/21/82 20/31/11
f 22/16/13 32/21/87 21/24/12
f 23/13/14 32/21/83 22/16/13
f 24/6/15 32/21/81 23/13/14
f 1/11/24 25/18/64 3/14/1
f 2/26/29 28/32/72 4/23/2
f 3/14/1 25/18/60 26/19/16
f 3/14/1 30/5/79 1/11/25
f 4/23/2 25/18/63 2/26/28
f 4/23/2 28/32/67 27/25/17
f 5/10/3 30/5/78 29/12/18
f 5/15/3 32/21/86 6/9/33
f 6/3/32 30/5/80 5/10/3
f 7/27/4 28/32/70 8/35/37
f 7/22/4 32/21/85 31/20/19
f 8/29/36 32/21/89 7/22/4
f 26/19/16 25/18/61 4/23/2
f 27/25/17 28/32/68 7/27/4
f 29/12/18 30/5/77 3/14/1
f 31/20/19 32/21/84 5/15/3
o Armour0_Swords
v 0.26493300 -0.12024532 0.11767400
v 0.25271300 -7.8537650e-2 0.15068532
v 0.25411500 -1.9524237e-2 -1.1783231e-2
v 0.26625900 -6.1397914e-2 -4.3540332e-2
v 0.26318400 -2.9125483e-2 -8.9396306e-2
v 0.25470700 4.2608482e-4 -6.8030178e-2
v 0.25006700 4.0392522e-2 -0.11551808
v 0.31501200 -0.10740704 -0.47469905
v 0.30660200 -5.9074963e-2 -0.50079816
v 0.29386100 -2.7843750e-2 -0.43589998
v 0.26806800 0.10099237 -0.46769299
v 0.27063100 0.10856644 -0.51522071
v 0.25777500 0.16376183 -0.50863893
v 0.25471600 0.15880769 -0.46207431
v 0.22654500 0.26557943 -0.41238330
v 0.22243000 0.30671471 -0.46865316
v 0.20842100 0.35561400 -0.43351014
v 0.23501500 0.10746106 -0.11389314
v 0.22197500 0.13802485 -4.3976861e-2
v 0.21482900 0.17799452 -6.3426201e-2
v 0.20498800 0.20264513 -1.4605910e-2
v 0.21297700 0.15709971 9.2770903e-3
v 0.18695700 0.21649842 0.15272782
v 0.19494500 0.17095324 0.17660985
v 0.21978000 0.11077655 4.8359303e-2
v 0.22435100 9.1152015e-2 4.6019701e-2
v 0.21633300 6.3971450e-2 0.20336236
v 0.22939900 7.3826085e-3 0.19788912
v 0.23821400 3.2611887e-2 3.6490756e-2
v 0.24221300 1.5440059e-2 3.4442995e-2
v 0.30295700 -7.9611500e-2 -0.40893010
v 0.21394500 0.30891776 -0.37917202
v -0.21976600 0.11133942 0.18196194
v -0.23176200 5.8820869e-2 0.19070995
v -0.24079700 8.8130263e-2 2.0592591e-2
v -0.22880600 0.14017195 1.3018758e-2
v -0.23537800 0.13490303 -4.2504139e-2
v -0.24380100 9.8693794e-2 -3.8071461e-2
v -0.25229300 8.7563082e-2 -9.8716914e-2
v -0.20059400 0.39364922 -0.34102202
v -0.21205300 0.36466833 -0.38702927
v -0.22256000 0.30543850 -0.34542486
v -0.25453800 0.20947099 -0.43510496
v -0.25468500 0.22644637 -0.48021183
v -0.26915200 0.17532495 -0.50100670
v -0.26964300 0.15655451 -0.45799979
v -0.29903000 3.9355455e-2 -0.46598140
v -0.30749000 3.1559921e-2 -0.53485098
v -0.32141900 -2.8250545e-2 -0.52770080
v -0.26963000 2.8600893e-2 -0.12954496
v -0.28015500 -3.2534964e-2 -8.3241405e-2
v -0.28971200 -5.7560081e-2 -0.11942694
v -0.29791400 -0.10311915 -8.8685691e-2
v -0.28708900 -7.5456698e-2 -4.5951616e-2
v -0.30783200 -0.19802307 5.0642986e-2
v -0.29700700 -0.17036037 9.3376092e-2
v -0.27664100 -5.4648753e-2 1.0416899e-2
v -0.27149700 -3.6472400e-2 1.7811050e-2
v -0.27046700 -9.0845898e-2 0.16815151
v -0.25568400 -3.9065864e-2 0.19058332
v -0.25605700 1.9008952e-2 3.7642710e-2
v -0.25155700 3.4914113e-2 4.4112295e-2
v -0.21024900 0.33696751 -0.29700601
v -0.31145300 -1.4676871e-2 -0.45784313
vt 0.33946900 0.48436900
vt 0.34498000 0.49357300
vt 0.34623200 0.47967200
vt 0.34942500 0.57190200
vt 0.35224300 0.48868900
vt 0.35506000 0.54710700
vt 0.35637500 0.57603400
vt 0.35900500 0.53978100
vt 0.36201000 0.55105200
vt 0.36388900 0.54241100
vt 0.36820900 0.55725000
vt 0.36896000 0.53471000
vt 0.37027500 0.58148200
vt 0.37083900 0.55725000
vt 0.37102700 0.48173900
vt 0.37121400 0.47460100
vt 0.37891600 0.58129400
vt 0.37910400 0.53377000
vt 0.37966700 0.47460100
vt 0.37985500 0.48155100
vt 0.37985500 0.55762600
vt 0.38286100 0.55762600
vt 0.38511500 0.54353800
vt 0.38905900 0.55105200
vt 0.39075000 0.53996900
vt 0.39450700 0.57547100
vt 0.39544600 0.54673100
vt 0.39694800 0.48699800
vt 0.40089300 0.57115000
vt 0.40202000 0.47798200
vt 0.40414900 0.49113200
vt 0.41009700 0.48230200
vn 0.97248586 0.21614620 8.6902712e-2
vn 0.97248568 0.21614668 8.6903543e-2
vn 0.97248700 0.21614224 8.6899744e-2
vn 0.97248898 0.21613436 8.6897146e-2
vn 0.97248886 0.21613463 8.6897871e-2
vn 0.97248646 0.21614709 8.6893679e-2
vn 0.97248637 0.21614398 8.6902474e-2
vn 0.97248587 0.21614603 8.6902913e-2
vn 0.97248670 0.21614332 8.6900471e-2
vn 0.97248660 0.21614862 8.6888408e-2
vn 0.97248726 0.21614682 8.6885482e-2
vn 0.97248626 0.21614662 8.6897123e-2
vn 0.97248494 0.21615240 8.6897564e-2
vn 0.97248548 0.21615156 8.6893545e-2
vn 0.97248646 0.21614741 8.6892957e-2
vn 0.97248686 0.21614580 8.6892504e-2
vn 0.97248688 0.21614214 8.6901345e-2
vn 0.97248944 0.21612985 8.6903295e-2
vn 0.97248862 0.21613371 8.6902887e-2
vn 0.97248554 0.21614433 8.6910877e-2
vn 0.97248866 0.21613704 8.6894051e-2
vn 0.97248683 0.21614378 8.6897828e-2
vn 0.97248767 0.21613779 8.6903327e-2
vn 0.97248616 0.21614603 8.6899712e-2
vn 0.97248646 0.21614646 8.6895254e-2
vn -0.96731087 0.23628442 9.2083445e-2
vn -0.96731058 0.23628597 9.2082523e-2
vn -0.96731180 0.23628146 9.2081214e-2
vn -0.96731161 0.23628405 9.2076551e-2
vn -0.96731104 0.23628759 9.2073505e-2
vn -0.96731216 0.23627890 9.2083997e-2
vn -0.96731115 0.23628089 9.2089574e-2
vn -0.96731116 0.23628082 9.2089555e-2
vn -0.96731178 0.23627933 9.2086901e-2
vn -0.96731071 0.23628786 9.2076236e-2
vn -0.96731152 0.23628363 9.2078604e-2
vn -0.96731293 0.23627582 9.2083837e-2
vn -0.96731201 0.23628103 9.2080171e-2
vn -0.96731255 0.23627701 9.2084778e-2
vn -0.96731365 0.23627356 9.2082087e-2
vn -0.96731219 0.23627902 9.2083364e-2
vn -0.96731293 0.23627774 9.2078865e-2
vn -0.96731220 0.23627859 9.2084363e-2
vn -0.96731380 0.23627347 9.2080760e-2
vn -0.96731196 0.23628502 9.2070363e-2
vn -0.96731373 0.23627397 9.2080170e-2
vn -0.96731286 0.23627754 9.2080144e-2
vn -0.96731467 0.23627273 9.2073520e-2
vn -0.96731140 0.23628042 9.2088135e-2
vn -0.96731350 0.23627259 9.2086127e-2
vn 0.97248597 0.21614818 8.6896537e-2
vn 0.97248923 0.21613187 8.6900544e-2
vn 0.97248923 0.21613187 8.6900544e-2
vn 0.97248683 0.21614676 8.6890419e-2
vn 0.97248597 0.21614818 8.6896537e-2
vn 0.97248683 0.21614676 8.6890419e-2
vn 0.97248923 0.21613187 8.6900544e-2
vn 0.97248923 0.21613187 8.6900544e-2
vn 0.97248675 0.21614299 8.6900666e-2
vn 0.97248811 0.21613680 8.6900906e-2
vn 0.97248726 0.21614682 8.6885482e-2
vn 0.97248726 0.21614682 8.6885482e-2
vn 0.97248675 0.21614299 8.6900666e-2
vn 0.97248792 0.21614502 8.6882556e-2
vn 0.97248718 0.21614115 8.6900419e-2
vn 0.97248675 0.21614299 8.6900666e-2
vn 0.97248693 0.21614448 8.6894953e-2
vn 0.97248693 0.21614448 8.6894953e-2
vn 0.97248693 0.21614448 8.6894953e-2
vn 0.97248704 0.21614168 8.6900701e-2
vn 0.97248704 0.21614168 8.6900701e-2
vn 0.97248693 0.21614448 8.6894953e-2
vn 0.97248693 0.21614448 8.6894953e-2
vn 0.97248702 0.21614633 8.6889345e-2
vn 0.97248652 0.21614440 8.6899687e-2
vn 0.97248695 0.21614427 8.6895259e-2
vn 0.97248695 0.21614427 8.6895259e-2
vn 0.97248597 0.21614818 8.6896537e-2
vn 0.97248556 0.21614531 8.6908193e-2
vn 0.97248683 0.21614378 8.6897828e-2
vn 0.97248597 0.21614818 8.6896537e-2
vn 0.97248683 0.21614378 8.6897828e-2
vn 0.97248556 0.21614531 8.6908193e-2
vn 0.97248541 0.21615195 8.6893386e-2
vn 0.97249311 0.21611184 8.6906955e-2
vn 0.97248500 0.21615052 8.6901605e-2
vn -0.96731235 0.23627724 9.2086281e-2
vn -0.96731504 0.23627254 9.2070073e-2
vn -0.96731504 0.23627254 9.2070073e-2
vn -0.96731245 0.23627726 9.2085191e-2
vn -0.96731235 0.23627724 9.2086281e-2
vn -0.96731245 0.23627726 9.2085191e-2
vn -0.96731504 0.23627254 9.2070073e-2
vn -0.96731504 0.23627254 9.2070073e-2
vn -0.96731235 0.23627835 9.2083423e-2
vn -0.96731307 0.23627597 9.2081976e-2
vn -0.96731152 0.23628363 9.2078604e-2
vn -0.96731152 0.23628363 9.2078604e-2
vn -0.96731235 0.23627835 9.2083423e-2
vn -0.96731233 0.23627941 9.2080972e-2
vn -0.96731271 0.23627706 9.2082921e-2
vn -0.96731235 0.23627835 9.2083423e-2
vn -0.96731225 0.23627811 9.2085158e-2
vn -0.96731225 0.23627811 9.2085158e-2
vn -0.96731225 0.23627811 9.2085158e-2
vn -0.96731331 0.23627463 9.2082895e-2
vn -0.96731331 0.23627463 9.2082895e-2
vn -0.96731225 0.23627811 9.2085158e-2
vn -0.96731225 0.23627811 9.2085158e-2
vn -0.96731274 0.23627549 9.2086627e-2
vn -0.96731277 0.23627640 9.2084029e-2
vn -0.96731464 0.23626939 9.2082368e-2
vn -0.96731464 0.23626939 9.2082368e-2
vn -0.96731235 0.23627724 9.2086281e-2
vn -0.96731136 0.23628618 9.2073748e-2
vn -0.96731286 0.23627754 9.2080144e-2
vn -0.96731235 0.23627724 9.2086281e-2
vn -0.96731286 0.23627754 9.2080144e-2
vn -0.96731136 0.23628618 9.2073748e-2
vn -0.96731193 0.23627809 9.2088534e-2
vn -0.96732487 0.23624110 9.2047511e-2
vn -0.96731199 0.23628111 9.2080118e-2
f 38/46/141 58/57/168 61/50/174
f 46/56/153 50/54/156 43/51/149
f 51/59/165 58/57/171 38/46/145
f 70/46/177 90/57/204 93/50/210
f 78/56/189 82/54/192 75/51/185
f 83/59/201 90/57/207 70/46/181
f 33/40/91 62/47/113 34/43/92
f 35/45/93 62/47/113 33/40/91
f 36/42/94 38/46/147 35/45/93
f 37/44/95 38/46/142 36/42/94
f 38/46/144 50/54/157 51/59/164
f 38/46/148 62/47/113 35/45/93
f 39/48/96 50/54/162 38/46/146
f 39/48/96 63/38/114 50/54/163
f 41/39/98 63/38/114 40/37/97
f 42/41/99 63/38/114 41/39/98
f 43/51/151 45/55/101 46/56/154
f 43/51/150 50/54/159 42/41/99
f 44/52/100 45/55/101 43/51/152
f 47/64/102 49/68/104 64/67/115
f 47/64/102 50/54/160 46/56/155
f 47/64/102 64/67/115 50/54/161
f 48/66/103 49/68/104 47/64/102
f 50/54/158 63/38/114 42/41/99
f 52/61/105 54/60/107 51/59/167
f 53/63/106 54/60/107 52/61/105
f 54/60/107 56/62/109 57/58/110
f 54/60/107 58/57/173 51/59/166
f 55/65/108 56/62/109 54/60/107
f 57/58/110 58/57/169 54/60/107
f 58/57/170 60/49/112 61/50/176
f 59/53/111 60/49/112 58/57/172
f 61/50/175 62/47/113 38/46/143
f 65/40/116 94/47/138 66/43/117
f 67/45/118 94/47/138 65/40/116
f 68/42/119 70/46/183 67/45/118
f 69/44/120 70/46/178 68/42/119
f 70/46/180 82/54/193 83/59/200
f 70/46/184 94/47/138 67/45/118
f 71/48/121 82/54/198 70/46/182
f 71/48/121 95/38/139 82/54/199
f 73/39/123 95/38/139 72/37/122
f 74/41/124 95/38/139 73/39/123
f 75/51/187 77/55/126 78/56/190
f 75/51/186 82/54/195 74/41/124
f 76/52/125 77/55/126 75/51/188
f 79/64/127 81/68/129 96/67/140
f 79/64/127 82/54/196 78/56/191
f 79/64/127 96/67/140 82/54/197
f 80/66/128 81/68/129 79/64/127
f 82/54/194 95/38/139 74/41/124
f 84/61/130 86/60/132 83/59/203
f 85/63/131 86/60/132 84/61/130
f 86/60/132 88/62/134 89/58/135
f 86/60/132 90/57/209 83/59/202
f 87/65/133 88/62/134 86/60/132
f 89/58/135 90/57/205 86/60/132
f 90/57/206 92/49/137 93/50/212
f 91/53/136 92/49/137 90/57/208
f 93/50/211 94/47/138 70/46/179
o Armour0_LeftArm
v -3.5382278e-2 4.3332446e-2 5.2761948e-2
v -3.5382278e-2 4.3332446e-2 -6.1156672e-2
v 0.77359229 -0.46617373 0.10811091
v 0.77359229 -0.46617373 -0.11650670
v 0.60943717 -0.66687791 -8.4960962e-2
v 0.60361423 -0.66755094 0.10172408
vt 0.18239500 0.55046800
vt 0.18239500 0.56245100
vt 0.26015500 0.59542700
vt 0.26025900 0.51791600
vt 0.26418200 0.54471100
vt 0.26429700 0.56840200
vn -0.68088019 -0.32321616 0.65721647
vn 0.15500490 0.68482346 -0.71203252
vn 0.91706206 0.15521774 0.36729365
vn 0.76672885 9.4001421e-2 -0.63505165
vn -1.9133036e-2 -0.93746301 -0.34755868
vn -2.2350384e-2 -0.79360903 0.60801741
f 97/69/213 99/73/215 98/70/214
f 97/69/213 102/72/218 99/73/215
f 98/70/214 99/73/215 100/74/216
f 100/74/216 101/71/217 98/70/214
f 97//213 101//217 102//218
f 98//214 101//217 97//213
f 99//215 101//217 100//216
f 102//218 101//217 99//215
o Armour0_RightArm
v -0.82014753 -0.45838976 0.10399738
v -0.82014753 -0.45838976 -0.11381717
v 3.5159114e-2 4.3844698e-2 5.2049950e-2
v 3.5159114e-2 4.3844698e-2 -6.1868670e-2
v -0.65807249 -0.65912711 -8.4896140e-2
v -0.65946135 -0.65842840 0.10107414
vt 7.6837000e-2 0.54500300
vt 7.6837000e-2 0.56791600
vt 7.9636000e-2 0.51817400
vt 7.9712000e-2 0.59555400
vt 0.15837600 0.56183700
vt 0.15868300 0.55158800
vn -0.88496473 -0.16185537 0.43662372
vn -0.76335412 0.46554979 -0.44783242
vn 0.39527364 0.29609560 0.86953214
vn 0.29108465 9.2182767e-2 -0.95224580
vn -1.2607135e-2 -0.93990926 -0.34119150
vn -1.2983035e-2 -0.79298770 0.60909929
f 103/75/219 105/80/221 104/76/220
f 103/75/219 108/77/224 105/80/221
f 104/76/220 105/80/221 106/79/222
f 106/79/222 107/78/223 104/76/220
f 103//219 107//223 108//224
f 104//220 107//223 103//219
f 105//221 107//223 106//222
f 108//224 107//223 105//221
