o Helmet0
v -0.78025300 1.18692478 -0.94874200
v 0.78091500 1.18627778 -0.94698700
v -0.93085400 0.51362778 -0.96170000
v 0.97458800 0.53179378 -0.95867000
v -0.37726900 1.58125078 -0.76855100
v 0.38400400 1.58082778 -0.76875800
v -0.37708800 1.58106778 0.45877100
v 0.38421900 1.58099178 0.45877100
v -0.79978700 1.24122178 0.45877200
v -0.92591500 0.58298378 0.45877100
v 0.78075600 1.18599678 0.45877200
v 0.97458800 0.53179578 0.45877200
v -0.45619000 1.16255178 0.71655800
v 0.39851200 1.19682278 0.71655800
v 0.53319900 0.85867178 0.71655800
v -0.59015100 0.84147778 0.71655800
v 0.78709300 1.15901578 0.48578300
v 0.85164300 0.85568678 0.43518400
v 1.21785900 1.21666878 0.14811800
v 1.23298800 0.92241378 0.13625900
v 1.35392600 1.08408278 4.1460000e-2
v -0.82930100 0.81542278 0.43319300
v -0.81536700 1.12647278 0.49811100
v -1.28630900 0.90219578 3.3298000e-2
v -1.25248200 1.20563878 0.11497800
v -1.38014500 1.07337578 -2.3036000e-2
v -0.96891500 1.61851378 0.72533100
v -0.79700100 1.45691378 0.72533100
v -0.66634600 1.36064178 0.72533100
v -0.33283100 1.17841278 0.72533100
v -2.6824000e-2 1.05807178 0.72533100
v 0.24135600 1.14884078 0.72533100
v 0.57554800 1.28911878 0.72533100
v 0.94274700 1.49541078 0.72533100
v 1.30994700 1.74708678 0.72533100
v 0.82722400 1.57380178 0.72533100
v 0.48065400 1.46652978 0.72533100
v 0.18359400 1.40464178 0.72533100
v -3.0949000e-2 1.38813878 0.72533100
v -0.25374400 1.40464178 0.72533100
v -0.53430100 1.45415178 0.72533100
v -0.70758600 1.50778778 0.72533100
vt 1.2352000e-2 0.93675600
vt 2.8583000e-2 0.92149900
vt 3.7024000e-2 0.92630200
vt 4.0918000e-2 0.91241000
vt 5.3384000e-2 0.92123900
vt 7.2405000e-2 0.89520600
vt 7.9872000e-2 0.91656400
vt 0.10090600 0.91500600
vt 0.10129600 0.88384400
vt 0.12116200 0.91656400
vt 0.12661500 0.89241400
vt 0.14920800 0.92240700
vt 0.15816700 0.90565800
vt 0.18192800 0.93253500
vt 0.19283400 0.92513400
vt 0.22750200 0.94889500
vt 0.24240300 0.94059700
vt 0.24522100 0.92162300
vt 0.26363200 0.94510600
vt 0.28861800 0.89513400
vt 0.30446600 0.71183100
vt 0.31097300 0.91636300
vt 0.31501800 0.77297600
vt 0.32299700 0.91561100
vt 0.33530900 0.74619200
vt 0.34328600 0.89396900
vt 0.34342600 0.81031300
vt 0.34795700 0.77650500
vt 0.35580300 0.80924200
vt 0.36605600 0.94469400
vt 0.38071000 0.92102200
vt 0.38634600 0.94131200
vt 0.42188600 0.81004200
vt 0.42865000 0.77974000
vt 0.43027400 0.80977200
vt 0.44136600 0.74781500
vt 0.46003400 0.77054100
vt 0.47329200 0.71426600
vt 0.49086500 3.1260000e-3
vt 0.49086500 0.12899700
vt 0.55318800 0.21638400
vt 0.55398400 3.1260000e-3
vt 0.55398400 0.12899700
vt 0.56463400 0.15279400
vt 0.60167500 3.1260000e-3
vt 0.60167500 0.11086800
vt 0.66834400 3.1260000e-3
vt 0.66834400 0.11195700
vt 0.70655400 0.15341300
vt 0.71816400 0.20983800
vt 0.71930600 3.1260000e-3
vt 0.71930600 0.12878900
vt 0.78336000 3.1260000e-3
vt 0.78336000 0.12987100
vn 1.2860910e-3 1.8596525e-2 -0.99982624
vn 7.9741871e-4 0.41364468 -0.91043805
vn -0.97895688 0.20358954 -1.3954223e-2
vn -0.66187287 0.74934250 -2.0251411e-2
vn 1.2860910e-3 1.8596525e-2 -0.99982624
vn 7.9741871e-4 0.41364468 -0.91043805
vn 0.95884889 0.28391689 8.2059261e-5
vn 0.70536307 0.70884620 1.6494464e-5
vn 1.2860910e-3 1.8596525e-2 -0.99982624
vn -0.97895688 0.20358954 -1.3954223e-2
vn 1.2860910e-3 1.8596525e-2 -0.99982624
vn 0.95884889 0.28391689 8.2059261e-5
vn 7.9741871e-4 0.41364468 -0.91043805
vn 3.2773422e-4 0.99999995 7.6869090e-6
vn -0.66187287 0.74934250 -2.0251411e-2
vn 7.9741871e-4 0.41364468 -0.91043805
vn 3.2773422e-4 0.99999995 7.6869090e-6
vn 0.70536307 0.70884620 1.6494464e-5
vn 3.2773422e-4 0.99999995 7.6869090e-6
vn -0.66187287 0.74934250 -2.0251411e-2
vn -1.1448737e-2 0.54105166 0.84091143
vn -0.48580284 0.40916871 0.77238369
vn 3.2773422e-4 0.99999995 7.6869090e-6
vn -1.1448737e-2 0.54105166 0.84091143
vn 0.52454689 0.38007799 0.76183415
vn 0.70536307 0.70884620 1.6494464e-5
vn -0.97895688 0.20358954 -1.3954223e-2
vn -0.66187287 0.74934250 -2.0251411e-2
vn -0.66378361 0.12718950 0.73703063
vn -0.48580284 0.40916871 0.77238369
vn -0.97895688 0.20358954 -1.3954223e-2
vn -0.66378361 0.12718950 0.73703063
vn 0.95884889 0.28391689 8.2059261e-5
vn 0.52454689 0.38007799 0.76183415
vn 0.70536307 0.70884620 1.6494464e-5
vn 0.58985940 0.17476835 0.78836661
vn 0.95884889 0.28391689 8.2059261e-5
vn 0.58985940 0.17476835 0.78836661
vn -1.1448737e-2 0.54105166 0.84091143
vn 0.0000000e+0 0.0000000e+0 1.00000000
vn -0.48580284 0.40916871 0.77238369
vn -1.1448737e-2 0.54105166 0.84091143
vn 0.0000000e+0 0.0000000e+0 1.00000000
vn 0.52454689 0.38007799 0.76183415
vn 0.0000000e+0 0.0000000e+0 1.00000000
vn 0.52454689 0.38007799 0.76183415
vn 0.58985940 0.17476835 0.78836661
vn 0.0000000e+0 0.0000000e+0 1.00000000
vn -0.66378361 0.12718950 0.73703063
vn -0.48580284 0.40916871 0.77238369
vn 0.61692402 4.0958268e-8 0.78702271
vn 0.61692402 4.0958268e-8 0.78702271
vn 0.61692402 4.0958268e-8 0.78702271
vn 0.61692082 2.1374307e-7 0.78702523
vn 0.61692402 4.0958268e-8 0.78702271
vn 0.61692082 2.1374307e-7 0.78702523
vn 0.61692082 2.1374307e-7 0.78702523
vn -0.66665440 -0.12354538 0.73505677
vn -0.66665440 -0.12354538 0.73505677
vn -0.66665440 -0.12354538 0.73505677
vn -0.66665824 -0.12354262 0.73505375
vn -0.66665440 -0.12354538 0.73505677
vn -0.66665824 -0.12354262 0.73505375
vn -0.66665824 -0.12354262 0.73505375
vn 0.0000000e+0 0.0000000e+0 1.00000000
vn 0.0000000e+0 0.0000000e+0 1.00000000
vn 0.0000000e+0 0.0000000e+0 1.00000000
vn 0.0000000e+0 0.0000000e+0 1.00000000
vn 0.0000000e+0 0.0000000e+0 1.00000000
vn 0.0000000e+0 0.0000000e+0 1.00000000
vn 0.0000000e+0 0.0000000e+0 1.00000000
vn 0.0000000e+0 0.0000000e+0 1.00000000
vn 0.0000000e+0 0.0000000e+0 1.00000000
vn 0.0000000e+0 0.0000000e+0 1.00000000
vn 0.0000000e+0 0.0000000e+0 1.00000000
vn 0.0000000e+0 0.0000000e+0 1.00000000
vn 0.0000000e+0 0.0000000e+0 1.00000000
vn 0.0000000e+0 0.0000000e+0 1.00000000
vn 0.0000000e+0 0.0000000e+0 1.00000000
vn 0.0000000e+0 0.0000000e+0 1.00000000
vn 0.0000000e+0 0.0000000e+0 1.00000000
vn 0.0000000e+0 0.0000000e+0 1.00000000
vn 0.0000000e+0 0.0000000e+0 1.00000000
vn 0.0000000e+0 0.0000000e+0 1.00000000
vn 0.0000000e+0 0.0000000e+0 1.00000000
vn 0.0000000e+0 0.0000000e+0 1.00000000
vn 0.0000000e+0 0.0000000e+0 1.00000000
vn 0.0000000e+0 0.0000000e+0 1.00000000
vn 0.0000000e+0 0.0000000e+0 1.00000000
vn 0.0000000e+0 0.0000000e+0 1.00000000
vn 0.0000000e+0 0.0000000e+0 1.00000000
vn 0.0000000e+0 0.0000000e+0 1.00000000
vn 0.0000000e+0 0.0000000e+0 1.00000000
vn 0.0000000e+0 0.0000000e+0 1.00000000
f 1/43/4 9/42/28 7/45/20 5/46/15
f 2/49/5 4/50/11 3/41/9 1/44/1
f 6/48/18 8/47/26 11/51/35 2/52/8
f 10/21/32 16/25/49 9/23/29
f 11/37/36 15/36/47 12/38/38
f 13/28/40 16/25/48 15/36/45 14/34/43
f 20/31/56 21/32/57 19/30/54
f 25/19/63 26/17/64 24/18/61
f 28/2/67 42/3/94 27/1/65
f 30/6/71 40/7/90 41/5/91 29/4/68
f 33/13/76 37/12/83 38/10/86 32/11/75
f 35/16/80 36/14/82 34/15/79
f 1/44/2 5/46/13 6/48/16 2/49/6
f 2/52/7 11/51/33 12/53/37 4/54/12
f 3/40/10 10/39/31 9/42/27 1/43/3
f 7/29/21 13/28/39 14/34/42 8/33/24
f 18/26/52 20/31/55 19/30/53 17/24/51
f 29/4/69 41/5/92 42/3/93 28/2/66
f 31/9/73 39/8/88 40/7/89 30/6/70
f 34/15/78 36/14/81 37/12/84 33/13/77
f 5/46/14 7/45/19 8/47/23 6/48/17
f 8/35/25 14/34/44 15/36/46 11/37/34
f 9/23/30 16/25/50 13/28/41 7/27/22
f 23/22/59 25/19/62 24/18/60 22/20/58
f 32/11/74 38/10/85 39/8/87 31/9/72
