o BipedFace
v -0.42366300 1.44302700 0.38959500
v 0.38646900 1.44302700 0.38959500
v -0.42366300 0.0000000e+0 0.38959400
v 0.38646900 0.0000000e+0 0.38959400
v 0.79204500 1.03776600 0.38959500
v 0.80407200 0.44984200 0.38959400
v -0.82616100 1.04033000 0.38959500
v -0.83021700 0.42323700 0.38959400
vt -4.9032147e-2 0.69317345
vt -4.4475814e-2 0.26434411
vt 0.23534383 1.00128021
vt 0.24597528 -4.1893603e-3
vt 0.78932111 -4.1893603e-3
vt 0.78932111 1.00128021
vt 1.06186885 0.27275671
vt 1.06587842 0.69157250
vn 3.4666517e-7 -6.9298773e-7 1.00000000
vn -2.4713960e-7 -9.5383916e-7 1.00000000
vn -2.4555091e-7 -9.2211290e-7 1.00000000
vn 3.7324323e-7 -6.9298773e-7 1.00000000
vn -1.7350448e-6 -1.7363935e-6 1.00000000
vn -4.9427919e-7 -1.2146906e-6 1.00000000
vn -4.9110182e-7 -1.1512381e-6 1.00000000
vn -1.6755340e-6 -1.6094884e-6 1.00000000
f 1/4/1 3/3/3 2/5/2
f 1/4/1 7/2/7 3/3/3
f 2/5/2 6/8/6 5/7/5
f 3/3/3 4/6/4 2/5/2
f 4/6/4 6/8/6 2/5/2
f 7/2/7 8/1/8 3/3/3

o BipedTorso
ml 0,0.60,0
v -0.21094200 -4.0167950e-3 -0.12201194
v 0.18589800 -5.6477950e-3 -0.12201094
v -0.10444800 0.48890620 -3.8618937e-2
v 0.10796800 0.48834920 -4.0007937e-2
v -0.10501500 0.48776620 0.15617506
v 0.10766400 0.48932020 0.15681006
v -0.21292800 -4.5387950e-3 0.13105506
v 0.18628000 -4.5387950e-3 0.13105506
vt 0.11952200 1.38867900
vt 0.13825700 1.43300800
vt 0.14771300 1.49252700
vt 0.14788200 1.37628900
vt 0.15863200 1.42392200
vt 0.15863200 1.44778500
vt 0.18270000 1.42392200
vt 0.18270000 1.44778500
vt 0.19345000 1.37628900
vt 0.19361900 1.49252700
vt 0.20335000 1.43383400
vt 0.22180900 1.38978100
vn -0.67646826 0.26255797 -0.68807994
vn 0.68834697 0.22450400 -0.68976547
vn -0.50088137 0.70284645 -0.50509872
vn 0.51249929 0.68647038 -0.51585162
vn -0.54040573 0.63736282 0.54929981
vn 0.55122143 0.61914225 0.55930118
vn -0.69666797 0.11538748 0.70805330
vn 0.70194933 7.4803735e-2 0.70828775
f 9/11/9 11/14/11 10/18/10
f 9/9/9 15/12/15 11/10/11
f 11/14/11 12/16/12 10/18/10
f 11/14/11 14/15/14 12/16/12
f 11/10/11 15/12/15 13/13/13
f 12/19/12 14/15/14 10/20/10
f 13/13/13 14/15/14 11/14/11
f 13/13/13 15/12/15 14/15/14
f 14/15/14 16/17/16 10/20/10
f 15/12/15 16/17/16 14/15/14

o BipedHead
ml 0.0,1.1,0.3
v -0.42366300 1.44302700 0.37959500
v 0.38646900 1.44302700 0.37959500
v -0.42366300 0.0000000e+0 0.37959400
v 0.38646900 0.0000000e+0 0.37959400
v 0.79204500 1.03776600 0.37959500
v 0.80407200 0.44984200 0.37959400
v -0.82616100 1.04033000 0.37959500
v -0.83021700 0.42323700 0.37959400
v -0.42366300 2.0000000e-6 -0.72832100
v 0.38646900 2.0000000e-6 -0.72832100
v -0.82641700 0.42237300 -0.72832000
v 0.80533900 0.44939000 -0.72832000
v -0.82600100 1.03936100 -0.72831800
v 0.79426000 1.04065900 -0.72831800
v -0.42809000 1.44363200 -0.72831700
v 0.39089700 1.44363200 -0.72831700
v 0.78707000 1.04513800 0.38292200
vt 0.39256200 1.23174400
vt 0.39256200 1.35891900
vt 0.45723800 1.22304100
vt 0.45734100 1.38130500
vt 0.52630400 1.22304100
vt 0.52640600 1.38130500
vt 0.54391900 1.47803800
vt 0.54421000 1.40956700
vt 0.54439600 1.70456400
vt 0.54514600 1.77501100
vt 0.59060600 1.22304100
vt 0.59070800 1.35796600
vt 0.59120600 1.52924300
vt 0.59120600 1.65394900
vt 0.59295600 1.81912500
vt 0.68239400 1.52924300
vt 0.68239400 1.65394900
vt 0.68239400 1.81912500
vt 0.68279000 1.22304100
vt 0.68289200 1.35796600
vt 0.72725700 1.77362900
vt 0.72747700 1.40956700
vt 0.72747700 1.47803800
vt 0.72791700 1.70482700
vt 0.74661600 1.22304100
vt 0.74671800 1.38178200
vt 0.81568100 1.22304100
vt 0.81578300 1.38178200
vt 0.87865700 1.23174400
vt 0.87865700 1.35891900
vn -0.25949426 0.62625761 0.73516266
vn 0.25892418 0.62682306 0.73488171
vn -0.26595423 -0.62266597 0.73590451
vn 0.27013072 -0.61935858 0.73717322
vn -1.7350448e-6 -1.7363935e-6 1.00000000
vn 0.82188824 -0.31201036 0.47660178
vn -0.81298850 0.33652861 0.47518227
vn -0.81843711 -0.32628970 0.47296484
vn -0.34579579 -0.80754180 -0.47780907
vn 0.35061459 -0.80499832 -0.47858867
vn -0.63101312 -0.25197421 -0.73371073
vn 0.63524091 -0.24329409 -0.73299179
vn -0.62833437 0.25760071 -0.73405572
vn 0.62609418 0.26877046 -0.73196210
vn -0.33828681 0.81200448 -0.47561618
vn 0.33665261 0.81331111 -0.47454195
vn 0.91764365 0.39738060 4.3356882e-3
f 17/35/17 19/34/19 18/38/18
f 17/35/17 23/30/23 19/34/19
f 17/31/17 31/32/31 23/25/23
f 18/38/18 22/44/22 21/41/21
f 18/39/18 31/32/31 17/31/17
f 18/39/18 32/40/32 31/32/31
f 18/39/18 33/45/33 30/46/30
f 19/34/19 20/37/20 18/38/18
f 19/34/19 26/36/26 20/37/20
f 19/21/19 27/24/27 25/22/25
f 20/37/20 22/44/22 18/38/18
f 20/49/20 26/50/26 22/47/22
f 23/30/23 24/29/24 19/34/19
f 23/25/23 27/24/27 24/23/24
f 23/25/23 29/26/29 27/24/27
f 23/25/23 31/32/31 29/26/29
f 24/23/24 27/24/27 19/21/19
f 25/33/25 26/36/26 19/34/19
f 25/33/25 27/27/27 26/36/26
f 26/50/26 28/48/28 22/47/22
f 27/27/27 28/43/28 26/36/26
f 27/27/27 30/42/30 28/43/28
f 28/48/28 30/46/30 22/47/22
f 29/28/29 30/42/30 27/27/27
f 29/28/29 31/32/31 30/42/30
f 30/46/30 32/40/32 18/39/18
f 30/46/30 33/45/33 22/47/22
f 31/32/31 32/40/32 30/42/30

o BipedRightArm
ml -0.1,0.5,0.0
v -0.60585079 -0.51517743 -6.0122335e-2
v -0.65209479 -0.45893543 -6.0122335e-2
v -0.60585079 -0.51517743 4.5288665e-2
v -0.65209479 -0.45893543 4.5288665e-2
v -0.60585079 -0.51517743 -6.0122335e-2
v -0.65209479 -0.45893543 -6.0122335e-2
v -0.78294779 -0.56439543 -0.12936433
v -0.73670379 -0.62063743 -0.12936433
v -0.60585079 -0.51517743 4.5288665e-2
v -0.65209479 -0.45893543 4.5288665e-2
v -0.78294779 -0.56439543 0.12270867
v -0.73670379 -0.62063743 0.12270867
v -0.78294779 -0.56439543 5.3665665e-2
v -0.73670379 -0.62063743 5.3665665e-2
v -0.83916979 -0.61062243 0.14232667
v -0.79292479 -0.66686443 0.14232667
v -0.82498979 -0.59896343 7.5768665e-2
v -0.77874579 -0.65520543 7.5768665e-2
v -0.88881779 -0.66868943 0.13346867
v -0.85949279 -0.70435443 0.13346867
v -0.88753579 -0.66763543 8.9716665e-2
v -0.85821079 -0.70330043 8.9716665e-2
v -0.96372979 -0.71304043 -0.12936333
v -0.91748479 -0.76928243 -0.12936433
v -0.96372979 -0.71303943 5.3666665e-2
v -0.91748479 -0.76928243 5.3666665e-2
v -0.78294779 -0.56439543 2.7756650e-3
v -0.78294779 -0.56439543 -4.8115335e-2
v -0.73670379 -0.62063743 2.7756650e-3
v -0.73670379 -0.62063743 -4.8115335e-2
v -0.99398579 -0.73791743 2.7756650e-3
v -0.99398579 -0.73791743 -4.8115335e-2
v -0.94774079 -0.79416043 2.7756650e-3
v -0.94774079 -0.79416043 -4.8115335e-2
v -0.60585079 -0.51517743 -6.0122335e-2
v -0.65209479 -0.45893543 -6.0122335e-2
v -0.60585079 -0.51517743 4.5288665e-2
v -0.65209479 -0.45893543 4.5288665e-2
v -0.33234579 -0.19549443 5.8690665e-2
v -0.33234579 -0.19549443 -5.1045335e-2
v 6.7620576e-4 2.8015722e-3 5.5594665e-2
v 6.7620576e-4 2.8015722e-3 -5.0871335e-2
v -0.26489879 -0.28089043 -7.2392335e-2
v -0.26458079 -0.28180743 5.8690665e-2
vt 0.0000000e+0 1.00000000
vt 3.4864000e-2 1.35291300
vt 3.4864000e-2 1.43963900
vt 4.7216000e-2 1.35291300
vt 4.7216000e-2 1.43963900
vt 5.9568000e-2 1.35291300
vt 5.9568000e-2 1.43963900
vt 7.6837000e-2 1.54500300
vt 7.6837000e-2 1.56791600
vt 7.9636000e-2 1.51817400
vt 7.9712000e-2 1.59555400
vt 0.15837600 1.56183700
vt 0.15868300 1.55158800
vn 0.77242159 0.63511013 0.0000000e+0
vn 0.77242159 0.63511013 0.0000000e+0
vn 0.77242159 0.63511013 0.0000000e+0
vn 0.77242159 0.63511013 0.0000000e+0
vn 0.69389736 -0.58908404 -0.41410922
vn -0.50169609 0.81425108 -0.29205514
vn -0.26498215 0.56819778 -0.77906081
vn 0.55597227 -0.46747892 -0.68728327
vn 0.70696300 -0.57851185 0.40685052
vn -0.34219661 0.79374806 0.50285734
vn -0.26131149 0.70142552 0.66311277
vn 0.59088968 -0.29310126 0.75162559
vn -0.73009129 0.66276726 -0.16645202
vn 0.57251139 -0.80084235 0.17573340
vn -0.46001592 0.54914197 0.69773093
vn 0.45018446 -0.56210211 0.69381206
vn -0.62179532 0.38552516 -0.68171910
vn 0.25679747 -0.68814075 -0.67861430
vn -0.86275009 -3.1122265e-2 0.50467186
vn -0.19157023 -0.84473469 0.49972408
vn -0.84135087 -3.6251657e-2 -0.53927223
vn -0.19224615 -0.82250663 -0.53527961
vn -0.67666023 0.10185232 -0.72921673
vn -3.0848490e-2 -0.68358362 -0.72922000
vn -0.60714070 0.13101468 0.78371890
vn 1.1203667e-2 -0.62101269 0.78372043
vn -0.63186074 0.77508194 -1.2507338e-6
vn -0.63131844 0.77552371 0.0000000e+0
vn 0.63132044 -0.77552209 0.0000000e+0
vn 0.63258634 -0.77448985 -5.0002399e-7
vn -0.96393610 0.14757888 0.22146707
vn -0.98041519 0.12088058 -0.15547971
vn -4.1500401e-2 -0.97428349 0.22147100
vn -7.0879577e-2 -0.98529285 -0.15548016
vn 0.21089591 -0.31291948 -0.92606928
vn -0.56118436 0.69653758 -0.44711019
vn 0.38221801 -0.59786302 0.70460571
vn -0.46728494 0.53120948 0.70672574
vn -0.43151292 0.55892962 0.70809200
vn -0.41690432 0.62583991 -0.65917767
vn 0.38804805 0.31259210 0.86700916
vn 0.11420349 0.32778223 -0.93782534
vn 0.57601145 -0.66024903 -0.48195646
vn 0.45457430 -0.54188862 0.70690801
f 34/51/34 37/51/37 36/51/36
f 35/51/35 37/51/37 34/51/34
f 38/51/38 40/51/40 39/51/39
f 38/51/38 41/51/41 40/51/40
f 38/51/38 63/51/63 41/51/41
f 39/51/39 60/51/60 43/51/43
f 39/51/39 61/51/61 60/51/60
f 40/51/40 57/51/57 56/51/56
f 40/51/40 61/51/61 39/51/39
f 40/51/40 65/51/65 61/51/61
f 41/51/41 57/51/57 40/51/40
f 41/51/41 63/51/63 57/51/57
f 42/51/42 47/51/47 38/51/38
f 43/51/43 45/51/45 42/51/42
f 43/51/43 46/51/46 44/51/44
f 43/51/43 60/51/60 46/51/46
f 44/51/44 45/51/45 43/51/43
f 44/51/44 48/51/48 45/51/45
f 45/51/45 47/51/47 42/51/42
f 45/51/45 51/51/51 47/51/47
f 46/51/46 48/51/48 44/51/44
f 46/51/46 50/51/50 48/51/48
f 46/51/46 51/51/51 50/51/50
f 46/51/46 58/51/58 47/51/47
f 46/51/46 60/51/60 58/51/58
f 47/51/47 51/51/51 46/51/46
f 47/51/47 62/51/62 38/51/38
f 47/51/47 66/51/66 62/51/62
f 48/51/48 49/51/49 45/51/45
f 48/51/48 53/51/53 49/51/49
f 48/51/48 54/51/54 52/51/52
f 49/51/49 51/51/51 45/51/45
f 49/51/49 53/51/53 51/51/51
f 50/51/50 54/51/54 48/51/48
f 51/51/51 54/51/54 50/51/50
f 51/51/51 55/51/55 54/51/54
f 52/51/52 53/51/53 48/51/48
f 52/51/52 54/51/54 53/51/53
f 53/51/53 55/51/55 51/51/51
f 54/51/54 55/51/55 53/51/53
f 56/51/56 65/51/65 40/51/40
f 57/51/57 65/51/65 56/51/56
f 57/51/57 67/51/67 65/51/65
f 58/51/58 59/51/59 47/51/47
f 58/51/58 66/51/66 59/51/59
f 59/51/59 66/51/66 47/51/47
f 60/51/60 64/51/64 58/51/58
f 60/51/60 65/51/65 64/51/64
f 61/51/61 65/51/65 60/51/60
f 62/51/62 63/51/63 38/51/38
f 62/51/62 66/51/66 63/51/63
f 63/51/63 67/51/67 57/51/57
f 64/51/64 66/51/66 58/51/58
f 65/51/65 66/51/66 64/51/64
f 65/51/65 67/51/67 66/51/66
f 66/51/66 67/51/67 63/51/63
f 68/51/68 76/51/76 70/53/70
f 69/56/69 73/61/73 68/51/68
f 70/53/70 72/54/72 71/55/71
f 70/53/70 77/52/77 72/54/72
f 71/55/71 72/54/72 69/57/69
f 72/54/72 73/56/73 69/57/69
f 72/58/72 74/63/74 73/59/73
f 72/58/72 77/60/77 74/63/74
f 73/61/73 76/51/76 68/51/68
f 74/63/74 75/62/75 73/59/73
f 74/60/74 76/62/76 75/62/75
f 74/60/74 77/51/77 76/62/76
f 75/62/75 76/61/76 73/59/73
f 76/51/76 77/51/77 70/53/70

o BipedLeftArm
ml 0.1,0.5,0.0
v 0.54795270 -0.48583059 -5.7542599e-2
v 0.59419670 -0.42958859 -5.7542599e-2
v 0.54795270 -0.48583059 4.7867401e-2
v 0.59419670 -0.42958859 4.7867401e-2
v 0.54795270 -0.48583059 -5.7542599e-2
v 0.59419670 -0.42958859 -5.7542599e-2
v 0.76545470 -0.57040259 -0.12678460
v 0.71921070 -0.62664459 -0.12678460
v 0.54795270 -0.48583059 4.7867401e-2
v 0.59419670 -0.42958859 4.7867401e-2
v 0.76545470 -0.57040259 0.12528840
v 0.71921070 -0.62664459 0.12528840
v 0.76545470 -0.57040259 5.6245401e-2
v 0.71921070 -0.62664459 5.6245401e-2
v 0.82167570 -0.61662959 0.14490540
v 0.77543170 -0.67287159 0.14490540
v 0.80749670 -0.60497059 7.8348401e-2
v 0.76125170 -0.66121259 7.8348401e-2
v 0.87132470 -0.67469659 0.13604740
v 0.84199970 -0.71036159 0.13604740
v 0.87004270 -0.67364259 9.2296401e-2
v 0.84071770 -0.70930759 9.2296401e-2
v 0.94623570 -0.71904659 -0.12678460
v 0.89999170 -0.77528959 -0.12678460
v 0.94623570 -0.71904659 5.6245401e-2
v 0.89999170 -0.77528959 5.6245401e-2
v 0.76545470 -0.57040259 5.3544006e-3
v 0.76545470 -0.57040259 -4.5536599e-2
v 0.71921070 -0.62664459 5.3544006e-3
v 0.71921070 -0.62664459 -4.5536599e-2
v 0.97649270 -0.74392459 5.3544006e-3
v 0.97649270 -0.74392459 -4.5536599e-2
v 0.93024770 -0.80016659 5.3544006e-3
v 0.93024770 -0.80016659 -4.5536599e-2
v 0.54795270 -0.48583059 -5.7542599e-2
v 0.59419670 -0.42958859 -5.7542599e-2
v 0.54795270 -0.48583059 4.7867401e-2
v 0.59419670 -0.42958859 4.7867401e-2
v 1.9957035e-3 -3.2085866e-3 5.5354401e-2
v 1.9957035e-3 -3.2085866e-3 -5.1111599e-2
v 0.36795870 -0.22181259 3.3088401e-2
v 0.34663670 -0.24981759 -6.7874599e-2
v 0.30569470 -0.30724859 -7.3358599e-2
v 0.30522770 -0.30760359 7.0131401e-2
vt 0.0000000e+0 1.00000000
vt 0.18239500 1.55046800
vt 0.18239500 1.56245100
vt 0.26015500 1.59542700
vt 0.26025900 1.51791600
vt 0.26418200 1.54471100
vt 0.26429700 1.56840200
vt 0.28974900 1.34320000
vt 0.28974900 1.42992600
vt 0.30210100 1.34320000
vt 0.30210100 1.42992600
vt 0.31445300 1.34320000
vt 0.31445300 1.42992600
vn -0.77242159 0.63511013 0.0000000e+0
vn -0.77242159 0.63511013 0.0000000e+0
vn -0.77242159 0.63511013 0.0000000e+0
vn -0.77242159 0.63511013 0.0000000e+0
vn -0.67103549 -0.60620484 -0.42688061
vn 0.52970400 0.79265385 -0.30185020
vn 0.29108708 0.54314939 -0.78756400
vn -0.53354179 -0.48199343 -0.69499317
vn -0.68194013 -0.59723869 0.42221275
vn 0.38719292 0.75883455 0.52369052
vn 0.28808928 0.67886768 0.67538377
vn -0.56356637 -0.31372279 0.76417992
vn 0.69120570 0.72250946 1.4655166e-2
vn -0.53389523 -0.84520153 2.4295204e-2
vn 0.46001625 0.54913850 0.69773344
vn -0.45017949 -0.56210181 0.69381553
vn 0.56751085 0.23723307 -0.78844905
vn -0.34842876 -0.73217528 -0.58524931
vn 0.86274932 -3.1117960e-2 0.50467343
vn 0.19157133 -0.84473408 0.49972469
vn 0.84135131 -3.6249521e-2 -0.53927169
vn 0.19224782 -0.82250635 -0.53527945
vn 0.67665464 0.10185488 -0.72922156
vn 3.0845472e-2 -0.68358376 -0.72921999
vn 0.60714057 0.13101288 0.78371931
vn -1.1197758e-2 -0.62101758 0.78371665
vn 0.63510997 0.77242173 5.3210940e-7
vn 0.63510995 0.77242175 0.0000000e+0
vn -0.63511085 -0.77242101 0.0000000e+0
vn -0.63511122 -0.77242070 8.5729993e-7
vn 0.96393461 0.14757641 0.22147521
vn 0.98041499 0.12087962 -0.15548172
vn 4.1499506e-2 -0.97428422 0.22146795
vn 7.0877185e-2 -0.98529369 -0.15547592
vn -0.39032585 -0.59195337 -0.70515030
vn 0.43930486 0.48799777 -0.75423433
vn -0.38020384 -0.53063210 0.75754512
vn 0.45260726 0.54312794 0.70721900
vn -0.57509310 -0.24838621 0.77946919
vn 0.20939737 0.59391350 -0.77680081
vn 0.53704028 0.71939836 0.44051532
vn 0.35514683 0.49658729 -0.79200492
vn -0.50844637 -0.60149494 -0.61618676
vn -0.36499502 -0.44891654 0.81563017
f 78/64/78 80/64/80 79/64/79
f 80/64/80 81/64/81 79/64/79
f 82/64/82 91/64/91 86/64/86
f 82/64/82 106/64/106 91/64/91
f 82/64/82 107/64/107 106/64/106
f 83/64/83 84/64/84 82/64/82
f 83/64/83 105/64/105 84/64/84
f 84/64/84 85/64/85 82/64/82
f 84/64/84 101/64/101 85/64/85
f 84/64/84 109/64/109 100/64/100
f 85/64/85 107/64/107 82/64/82
f 86/64/86 89/64/89 87/64/87
f 86/64/86 91/64/91 89/64/89
f 87/64/87 89/64/89 88/64/88
f 87/64/87 104/64/104 83/64/83
f 88/64/88 90/64/90 87/64/87
f 88/64/88 92/64/92 90/64/90
f 89/64/89 92/64/92 88/64/88
f 89/64/89 93/64/93 92/64/92
f 89/64/89 95/64/95 93/64/93
f 90/64/90 94/64/94 91/64/91
f 90/64/90 104/64/104 87/64/87
f 91/64/91 95/64/95 89/64/89
f 91/64/91 102/64/102 90/64/90
f 91/64/91 103/64/103 102/64/102
f 91/64/91 110/64/110 103/64/103
f 92/64/92 94/64/94 90/64/90
f 92/64/92 97/64/97 96/64/96
f 92/64/92 98/64/98 94/64/94
f 93/64/93 97/64/97 92/64/92
f 94/64/94 95/64/95 91/64/91
f 94/64/94 98/64/98 95/64/95
f 95/64/95 97/64/97 93/64/93
f 95/64/95 99/64/99 97/64/97
f 96/64/96 98/64/98 92/64/92
f 97/64/97 98/64/98 96/64/96
f 97/64/97 99/64/99 98/64/98
f 98/64/98 99/64/99 95/64/95
f 100/64/100 101/64/101 84/64/84
f 100/64/100 109/64/109 101/64/101
f 101/64/101 107/64/107 85/64/85
f 101/64/101 111/64/111 107/64/107
f 102/64/102 104/64/104 90/64/90
f 102/64/102 108/64/108 104/64/104
f 102/64/102 110/64/110 108/64/108
f 103/64/103 110/64/110 102/64/102
f 104/64/104 105/64/105 83/64/83
f 104/64/104 109/64/109 105/64/105
f 105/64/105 109/64/109 84/64/84
f 106/64/106 110/64/110 91/64/91
f 107/64/107 110/64/110 106/64/106
f 107/64/107 111/64/111 110/64/110
f 108/64/108 109/64/109 104/64/104
f 108/64/108 110/64/110 109/64/109
f 109/64/109 111/64/111 101/64/101
f 110/64/110 111/64/111 109/64/109
f 112/64/112 120/64/120 113/72/113
f 113/72/113 118/73/118 115/74/115
f 113/72/113 119/71/119 118/73/118
f 113/72/113 120/64/120 119/70/119
f 114/75/114 120/64/120 112/64/112
f 114/75/114 121/64/121 120/64/120
f 115/74/115 118/73/118 114/76/114
f 116/65/116 118/69/118 117/66/117
f 116/65/116 121/68/121 118/69/118
f 117/67/117 120/64/120 116/66/116
f 118/69/118 119/70/119 117/66/117
f 118/73/118 121/75/121 114/76/114
f 119/70/119 120/67/120 117/66/117
f 120/64/120 121/65/121 116/66/116

o BipedRightLeg
ml -0.1,0.45,0.0
v -8.7839051e-2 6.9018026e-3 -0.12573739
v 0.10088395 3.6658026e-3 -0.12573639
v -8.4134051e-2 -0.44702920 -0.12573739
v 4.4862949e-2 -0.44960420 -0.12573739
v -9.7601051e-2 6.9380256e-4 0.12806961
v 0.10247195 -2.3431974e-3 0.12732961
v -9.7601051e-2 -0.45260420 0.14743261
v 4.9896949e-2 -0.45220920 0.12732961
vt 9.9582000e-2 1.28375900
vt 0.11726600 1.23548900
vt 0.12019200 1.28891900
vt 0.13134300 1.23905600
vt 0.14589300 1.29252400
vt 0.14807200 1.24150100
vt 0.16241200 1.24154600
vt 0.16832900 1.29218200
vn -0.65455098 0.32704889 -0.68161722
vn 0.50882667 0.86068014 1.8030982e-2
vn 0.45157059 -0.83671531 -0.30982494
vn 5.2813839e-6 -6.5274209e-7 -1.00000000
vn -0.38947044 0.82553246 0.40842249
vn 0.76944111 0.21385256 0.60185336
vn -0.65877674 -0.34829648 0.66686038
vn 0.63696159 -0.70301896 0.31629776
f 122/79/122 125/78/125 124/80/124
f 122/79/122 126/81/126 123/77/123
f 122/79/122 128/82/128 126/81/126
f 123/77/123 125/78/125 122/79/122
f 123//123 127//127 124//124
f 124//124 125//125 123//123
f 124/80/124 128/82/128 122/79/122
f 124//124 129//129 128//128
f 126//126 127//127 123//123
f 126/81/126 128/82/128 127/84/127
f 127//127 129//129 124//124
f 128/82/128 129/83/129 127/84/127

o BipedLeftLeg
ml 0.1,0.45,0.0
v 0.10325788 1.0886927e-3 -0.12577223
v -9.6070123e-2 4.5076927e-3 -0.12577223
v 8.0545877e-2 -0.45171131 -0.12577223
v 0.10325788 1.0886927e-3 -0.12577223
v 8.0545877e-2 -0.45171131 -0.12577223
v 0.10465288 -4.3763073e-3 0.13769977
v -9.4482123e-2 -1.5013073e-3 0.12729377
v 0.10465288 -0.45228731 0.15043777
v -4.6088123e-2 -0.45493231 0.12729377
v -9.6070123e-2 4.5076927e-3 -0.12577223
v 8.0545877e-2 -0.45171131 -0.12577223
v -4.6472123e-2 -0.45355431 -0.12577223
vt 7.7815000e-2 1.27830900
vt 9.1834000e-2 1.22924200
vt 9.9582000e-2 1.28375900
vt 0.10565900 1.23198400
vt 0.16832900 1.29218200
vt 0.17416100 1.24114400
vt 0.18813900 1.24144200
vt 0.18957300 1.29185900
vt 0.20534300 1.23991300
vt 0.21595300 1.29032900
vn 0.0000000e+0 0.0000000e+0 0.0000000e+0
vn 0.0000000e+0 0.0000000e+0 0.0000000e+0
vn 0.0000000e+0 0.0000000e+0 0.0000000e+0
vn 0.19047012 0.83909821 -0.50954424
vn 0.20500535 -0.67649640 -0.70733685
vn 0.64352037 0.34592112 0.68280313
vn -0.87714655 0.47973971 -2.1534689e-2
vn 0.54552875 -0.61644158 0.56780117
vn -0.49803896 -0.49627050 0.71110673
vn 0.0000000e+0 0.0000000e+0 0.0000000e+0
vn 0.0000000e+0 0.0000000e+0 0.0000000e+0
vn 0.0000000e+0 0.0000000e+0 0.0000000e+0
f 130/85/130 132/86/132 131/87/131
f 131//131 132//132 130//130
f 133/94/133 135/92/135 134/93/134
f 133/85/133 136/89/136 135/92/135
f 134//134 136//136 133//133
f 134//134 138//138 136//136
f 135/92/135 137/91/137 134/93/134
f 135/92/135 138/90/138 137/91/137
f 136/89/136 138/90/138 135/92/135
f 137//137 138//138 134//134
f 139//139 141//141 140//140
f 140/86/140 141/88/141 139/87/139

o BipedPelvis
ml 0.0,0.6,0.0
v -0.21094200 -2.9882933e-3 -0.12237110
v 0.18589800 -4.6192933e-3 -0.12237010
v -0.21292800 -3.5102933e-3 0.13069590
v 0.18628000 -3.5102933e-3 0.13069590
v -0.20316600 -0.14870829 -0.12237210
v 0.18488500 -0.15536329 -0.12237110
v -1.4054000e-2 -3.7002933e-3 -0.12237010
v -1.4443000e-2 -0.15194429 -0.12237110
v 0.18628000 -0.16082829 0.14110090
v -0.21292800 -0.15491629 0.13143490
v -1.2855000e-2 -0.15795329 0.13069490
v -1.3324000e-2 -3.5102933e-3 0.13069590
vt 7.3354000e-2 1.29503700
vt 7.7815000e-2 1.27830900
vt 9.5940000e-2 1.30073200
vt 9.9582000e-2 1.28375900
vt 0.11732400 1.30612500
vt 0.12019200 1.28891900
vt 0.14580900 1.30956600
vt 0.14589300 1.29252400
vt 0.16827700 1.30956600
vt 0.16832900 1.29218200
vt 0.18957300 1.29185900
vt 0.19074400 1.30956600
vt 0.21595300 1.29032900
vt 0.21980200 1.30574300
vn -0.41337363 0.80882354 -0.41824241
vn 0.41026636 0.81404796 -0.41110515
vn -0.67581075 0.32244455 0.66280415
vn 0.65469964 0.35570441 0.66696533
vn -0.56914832 -0.57542785 -0.58732698
vn 0.56592279 -0.57651571 -0.58937342
vn 1.8381456e-3 0.44707816 -0.89449301
vn -1.1978875e-2 -0.69859828 -0.71541383
vn 0.57041641 -0.56957994 0.59178021
vn -0.59472086 -0.58537891 0.55103414
vn -1.9906303e-2 -0.70913870 0.70478794
vn 1.8370447e-3 0.89476755 0.44652846
f 142/99/142 146/100/146 144/101/144
f 142/99/142 148/97/148 146/100/146
f 142//142 153//153 148//148
f 143//143 153//153 145//145
f 144//144 153//153 142//142
f 145/106/145 147/107/147 143/108/143
f 145/106/145 150/105/150 147/107/147
f 145/106/145 152/104/152 150/105/150
f 145/106/145 153/103/153 152/104/152
f 146/100/146 151/102/151 144/101/144
f 146/100/146 152/104/152 151/102/151
f 147/96/147 148/97/148 143/95/143
f 147/96/147 149/98/149 148/97/148
f 147/107/147 152/104/152 149/98/149
f 148/97/148 149/98/149 146/100/146
f 148//148 153//153 143//143
f 149/98/149 152/104/152 146/100/146
f 150/105/150 152/104/152 147/107/147
f 151/102/151 152/104/152 144/101/144
f 152/104/152 153/103/153 144/101/144
