o Boy0_Hair
v 0.37755400 1.03385603 0.65915074
v 0.79927100 1.03961003 0.38779874
v 0.39508300 1.44160003 0.38779874
v -0.42355100 1.44075903 0.38779874
v -0.42479700 1.03385603 0.65915074
v -0.82287300 1.03385603 0.38779874
v -0.83107400 0.42051403 0.38779874
v -0.83086000 0.43652903 0.38779874
v -0.42906700 0.30849903 0.65012474
v -0.46782200 0.31929803 0.62483574
v -0.51886400 0.33352003 0.59152874
v -0.78794500 0.40849703 0.41594274
v 0.80912100 0.70408103 0.38779874
v -0.42147800 0.78073103 0.65915074
v -0.41779300 0.49963203 0.65915074
v -0.41404900 0.26725603 0.64790474
v -0.41401900 0.26631203 0.64762074
v 0.37755400 0.64929603 0.65915074
v 0.46198100 0.33115603 0.60699374
v 0.59227500 0.37206903 0.52650174
v 0.61572900 0.37943403 0.51201374
v 0.69086600 0.40302803 0.46559574
v -0.47506200 0.20941703 0.58381674
v -0.53076900 0.38850903 0.58331074
v -0.33731500 0.49835403 0.65914974
v -0.47950600 0.55007703 0.61753374
v 0.39800200 0.61332003 0.64651874
v 0.41464400 0.77599503 0.63623774
v 0.45071800 0.49446103 0.61395174
v 0.49574100 0.60640403 0.58613874
v 0.41558800 0.12649803 0.58351674
v 0.53766500 0.29135003 0.54280174
v -0.29672100 0.44936103 0.65914974
v 0.62169900 0.41875603 0.50832474
v -0.34424500 0.69166703 0.65915074
v -0.13865300 0.55062903 0.65915074
v 1.8678000e-2 0.47722203 0.65914974
v -1.5014000e-2 0.62865103 0.65915074
v 0.16110300 0.47602703 0.65915074
v 0.13334900 0.71475103 0.65915074
v 0.29833400 0.58023003 0.65915074
v 0.35796100 0.54327703 0.65915074
v 0.32499400 0.75543903 0.65915074
v 0.58700900 0.23933103 0.49380274
vt 4.3703000e-2 0.68223500
vt 4.3961000e-2 0.68453700
vt 5.1002000e-2 0.67998500
vt 5.3584000e-2 0.77039600
vt 9.4884000e-2 0.67370900
vt 9.6543000e-2 0.66594900
vt 0.10041800 0.64697700
vt 0.10463800 0.69505200
vt 0.10518100 0.66328600
vt 0.11174000 0.66126400
vt 0.11269200 0.82711300
vt 0.11308600 0.65481400
vt 0.11311000 0.65495500
vt 0.11474400 0.68707100
vt 0.11569900 0.72531500
vt 0.11656000 0.75975300
vt 0.12556200 0.71337800
vt 0.12561700 0.68712300
vt 0.13097700 0.68060300
vt 0.15276400 0.69479800
vt 0.16939800 0.70562900
vt 0.17438100 0.68544700
vt 0.18881600 0.71746500
vt 0.19397000 0.68577600
vt 0.21185100 0.70001000
vt 0.21383200 0.72323700
vt 0.21809500 0.76010300
vt 0.22021500 0.69528300
vt 0.22182100 0.70933100
vt 0.22532600 0.82507300
vt 0.22543100 0.70503300
vt 0.22644500 0.72692400
vt 0.23510800 0.69042400
vt 0.23806800 0.63926100
vt 0.23873400 0.66893800
vt 0.24114300 0.70624200
vt 0.25317400 0.66453400
vt 0.25968200 0.67682500
vt 0.26345200 0.67824400
vt 0.26351900 0.65797800
vt 0.26391900 0.68364100
vt 0.27553200 0.68279200
vt 0.28312800 0.77238200
vt 0.29023800 0.72631800
vn 0.47177059 0.47435013 0.74325263
vn -2.8458966e-4 0.55443024 0.83223015
vn -2.8458966e-4 0.55443024 0.83223015
vn 0.0000000e+0 0.0000000e+0 1.00000000
vn 0.0000000e+0 0.0000000e+0 1.00000000
vn 0.0000000e+0 0.0000000e+0 1.00000000
vn 0.53334424 1.5500709e-3 0.84589687
vn 0.53334424 1.5500709e-3 0.84589687
vn 0.47177059 0.47435013 0.74325263
vn 0.53799929 9.4016074e-3 0.84289286
vn 0.53799929 9.4016074e-3 0.84289286
vn 0.47177059 0.47435013 0.74325263
vn -5.6917923e-4 0.55404217 0.83248841
vn -2.8458966e-4 0.55443024 0.83223015
vn -0.49295173 0.48376756 0.72316494
vn -2.8458966e-4 0.55443024 0.83223015
vn 0.0000000e+0 0.55481815 0.83197165
vn -0.49295173 0.48376756 0.72316494
vn 0.0000000e+0 0.0000000e+0 1.00000000
vn 0.0000000e+0 0.0000000e+0 1.00000000
vn 0.0000000e+0 0.0000000e+0 1.00000000
vn 0.0000000e+0 0.0000000e+0 1.00000000
vn -0.56323155 -7.3851477e-3 0.82626611
vn -0.49295173 0.48376756 0.72316494
vn -0.55848666 -2.4772061e-3 0.82950980
vn -0.55848666 -2.4772061e-3 0.82950980
vn -0.55848666 -2.4772061e-3 0.82950980
vn -0.54505252 7.2832494e-3 0.83837027
vn -0.54505252 7.2832494e-3 0.83837027
vn -0.54826942 4.5060614e-3 0.83628963
vn -0.54826942 4.5060614e-3 0.83628963
vn -0.54671136 -1.1858215e-3 0.83732030
vn -0.57719174 -0.25198715 0.77675747
vn -0.57719174 -0.25198715 0.77675747
vn -0.54504292 7.2931218e-3 0.83837642
vn -0.54928102 -1.3691937e-3 0.83563658
vn -0.57711355 -0.25196317 0.77682334
vn -0.54928102 -1.3691937e-3 0.83563658
vn -0.54504292 7.2931218e-3 0.83837642
vn -0.57711478 -0.25196515 0.77682179
vn -0.54504195 7.2934251e-3 0.83837705
vn -0.54505252 7.2832494e-3 0.83837027
vn -0.57711478 -0.25196515 0.77682179
vn -0.54612753 1.5351958e-3 0.83770064
vn -0.54612753 1.5351958e-3 0.83770064
vn -0.54612753 1.5351958e-3 0.83770064
vn 0.53231763 1.0105390e-2 0.84648439
vn 0.53231763 1.0105390e-2 0.84648439
vn 0.53231763 1.0105390e-2 0.84648439
vn 0.53231763 1.0105390e-2 0.84648439
vn 0.0000000e+0 0.0000000e+0 1.00000000
vn -0.56323336 -7.3847655e-3 0.82626488
vn -0.56323336 -7.3847655e-3 0.82626488
vn -0.56323336 -7.3847655e-3 0.82626488
vn 1.2428343e-5 1.6292639e-7 1.00000000
vn 1.2509887e-5 5.2978875e-6 1.00000000
vn -0.56323682 -7.3836182e-3 0.82626253
vn 1.2509887e-5 5.2978875e-6 1.00000000
vn -0.57726993 -0.25201113 0.77669159
vn -0.57719174 -0.25198715 0.77675747
vn -0.57719174 -0.25198715 0.77675747
vn 0.52556600 4.4910075e-7 0.85075283
vn 0.0000000e+0 0.0000000e+0 1.00000000
vn 0.52556600 4.4910075e-7 0.85075283
vn 0.56164737 -0.21885064 0.79790766
vn 0.52557061 -3.1716287e-6 0.85074998
vn 0.56164737 -0.21885064 0.79790766
vn 0.52553141 2.7554847e-5 0.85077420
vn 0.52556943 -3.8455150e-6 0.85075071
vn 0.52556943 -3.8455150e-6 0.85075071
vn 0.56164621 -0.21885309 0.79790780
vn 0.52553141 2.7554847e-5 0.85077420
vn 0.56165027 -0.21884805 0.79790632
vn 0.52556917 1.9633287e-5 0.85075087
vn 0.56165027 -0.21884805 0.79790632
vn 0.52656825 6.1527384e-3 0.85011060
vn 0.52656825 6.1527384e-3 0.85011060
vn -0.57711478 -0.25196515 0.77682179
vn -0.54504292 7.2931218e-3 0.83837642
vn -0.54753543 4.6013516e-4 0.83678237
vn -0.54753543 4.6013516e-4 0.83678237
vn -0.54753543 4.6013516e-4 0.83678237
vn 1.2509887e-5 5.2978875e-6 1.00000000
vn 1.2509887e-5 5.2978875e-6 1.00000000
vn -0.55249022 -1.8366494e-3 0.83351736
vn -0.55249022 -1.8366494e-3 0.83351736
vn -0.55249022 -1.8366494e-3 0.83351736
vn -0.55249022 -1.8366494e-3 0.83351736
vn -0.55249022 -1.8366494e-3 0.83351736
vn -0.55249022 -1.8366494e-3 0.83351736
vn -0.55249022 -1.8366494e-3 0.83351736
vn 0.52556489 8.9820149e-7 0.85075352
vn 0.53106550 4.0216895e-3 0.84732123
vn 0.53106550 4.0216895e-3 0.84732123
vn 0.53106550 4.0216895e-3 0.84732123
vn 0.53106550 4.0216895e-3 0.84732123
vn 0.53106550 4.0216895e-3 0.84732123
vn 0.53106550 4.0216895e-3 0.84732123
vn 0.52556201 -2.8716624e-6 0.85075529
vn 0.52870794 2.4844611e-3 0.84880018
vn 0.52870794 2.4844611e-3 0.84880018
vn 0.52870794 2.4844611e-3 0.84880018
vn 0.52870794 2.4844611e-3 0.84880018
vn 0.52870794 2.4844611e-3 0.84880018
vn 0.56164853 -0.21884820 0.79790751
vn 0.56164737 -0.21885064 0.79790766
vn 0.56164737 -0.21885064 0.79790766
vn 1.2591431e-5 1.0432849e-5 1.00000000
vn 0.52553141 2.7554847e-5 0.85077420
vn 0.52798140 4.8513430e-3 0.84924208
vn 0.52798140 4.8513430e-3 0.84924208
vn 0.52798140 4.8513430e-3 0.84924208
vn 0.52798140 4.8513430e-3 0.84924208
vn 0.0000000e+0 0.0000000e+0 1.00000000
vn 0.0000000e+0 0.0000000e+0 1.00000000
vn 0.0000000e+0 0.0000000e+0 1.00000000
vn 1.8271064e-6 -2.8953578e-6 1.00000000
vn 1.8271064e-6 -2.8953578e-6 1.00000000
vn 3.6542127e-6 -5.7907155e-6 1.00000000
vn 7.3084255e-7 -1.1581431e-6 1.00000000
vn 7.3084255e-7 -1.1581431e-6 1.00000000
vn 7.3084255e-7 -1.1581431e-6 1.00000000
vn 7.3084255e-7 -1.1581431e-6 1.00000000
vn 7.3084255e-7 -1.1581431e-6 1.00000000
vn 0.0000000e+0 0.0000000e+0 1.00000000
vn 0.0000000e+0 0.0000000e+0 1.00000000
vn 0.0000000e+0 0.0000000e+0 1.00000000
vn 0.0000000e+0 0.0000000e+0 1.00000000
vn 0.0000000e+0 0.0000000e+0 1.00000000
vn 0.0000000e+0 0.0000000e+0 1.00000000
vn -1.2139047e-15 0.0000000e+0 1.00000000
vn -1.2139047e-15 0.0000000e+0 1.00000000
vn -2.4278093e-15 0.0000000e+0 1.00000000
vn -6.0695233e-16 0.0000000e+0 1.00000000
vn -6.0695233e-16 0.0000000e+0 1.00000000
vn -6.0695233e-16 0.0000000e+0 1.00000000
vn -6.0695233e-16 0.0000000e+0 1.00000000
vn 0.56165027 -0.21884805 0.79790632
f 1/27/6 43/26/137 18/29/63
f 2/43/9 3/30/12 1/27/1
f 4/11/15 6/4/24 5/16/18
f 5/16/22 40/23/130 1/27/5
f 7/1/28 12/3/42 8/2/29
f 9/10/34 17/12/61 16/13/59
f 10/9/37 17/12/60 9/10/33
f 10/9/35 24/5/79 11/6/39
f 12/3/43 23/7/78 11/6/40
f 14/15/51 35/17/114 5/16/19
f 15/14/58 25/18/84 14/15/55
f 19/35/67 32/37/107 20/38/71
f 21/39/72 34/41/109 20/38/68
f 21/39/73 44/40/138 22/42/75
f 31/34/105 32/37/106 19/35/65
f 33/19/108 25/18/83 15/14/56
f 35/17/115 38/21/121 5/16/20
f 36/20/118 38/21/123 35/17/116
f 37/22/119 38/21/120 36/20/117
f 38/21/124 40/23/128 5/16/21
f 39/24/125 40/23/126 38/21/122
f 41/25/132 43/26/135 40/23/127
f 42/28/133 43/26/134 41/25/131
f 43/26/136 1/27/4 40/23/129
f 1/27/2 4/11/14 5/16/17
f 1/27/8 28/32/98 2/43/11
f 2/43/10 28/32/96 13/44/47
f 3/30/13 4/11/16 1/27/3
f 6/4/27 14/15/54 5/16/23
f 8/2/30 26/8/86 6/4/25
f 9/10/32 26/8/85 10/9/36
f 10/9/38 26/8/88 24/5/81
f 11/6/41 24/5/80 12/3/44
f 12/3/46 24/5/82 26/8/89
f 12/3/45 26/8/87 8/2/31
f 13/44/50 34/41/113 22/42/77
f 14/15/53 26/8/91 15/14/57
f 18/29/64 28/32/95 1/27/7
f 20/38/70 30/36/102 19/35/66
f 22/42/76 34/41/112 21/39/74
f 26/8/90 14/15/52 6/4/26
f 27/31/92 28/32/93 18/29/62
f 29/33/99 30/36/100 28/32/94
f 30/36/103 13/44/48 28/32/97
f 34/41/111 13/44/49 30/36/104
f 34/41/110 30/36/101 20/38/69
